<svg xmlns="http://www.w3.org/2000/svg" id="Calque_1" data-name="Calque 1" viewBox="0 0 299.15 299.15"><defs><style>.cls-1{fill:#c95b16;}.cls-2{fill:#fff;}.cls-3{fill:none;stroke:#fff;stroke-miterlimit:10;stroke-width:4.79px;}</style></defs><title>4phone</title><circle class="cls-1" cx="149.57" cy="149.57" r="149.57"></circle><path class="cls-2" d="M224.54,122.24c.05,3.55.1,6.82.16,10.47l-50.54.8c1.07,67.47,2.14,134.55,3.21,201.87l118-1.88q-.33-20.49-.66-41.27l11.65-.19c.09,1,.23,1.82.25,2.65.28,17.13.59,34.25.8,51.38.11,9.18-4.39,15.53-12.48,17.77a18,18,0,0,1-4.4.54q-53.61.89-107.24,1.71c-10.12.16-17.26-6.58-17.42-16.65q-1.72-104.7-3.34-209.39c-.15-9.9,6.24-16.93,16.11-17.27,14.78-.49,29.58-.55,44.36-.78A11.55,11.55,0,0,1,224.54,122.24Zm11.82,218.52a8.28,8.28,0,0,0-7.88,8.37,8.6,8.6,0,0,0,8.2,7.82,8.26,8.26,0,0,0,7.94-8.31A8,8,0,0,0,236.36,340.76Zm-30.9,3.93c-2.33,0-4.67-.07-7,.15a4.48,4.48,0,0,0-4.41,4.55c-.14,2.41,2,4.39,4.8,4.39q6.67,0,13.33-.21a4.62,4.62,0,0,0,4.76-4.48,4.71,4.71,0,0,0-4.84-4.49C209.91,344.51,207.68,344.64,205.46,344.69Zm62.39-1c-2.23,0-4.47,0-6.69.13-3.13.19-4.92,2.07-4.79,4.81s1.89,4.18,5,4.18q6.38,0,12.75-.2c3.29-.1,5-1.72,4.92-4.55s-1.93-4.38-5.1-4.46C271.89,343.55,269.87,343.64,267.85,343.68Z" transform="translate(-90.04 -90.68)"></path><path class="cls-2" d="M248.59,297.42H243.4a4.32,4.32,0,0,0-.68-.26,19.42,19.42,0,0,1-14.54-10.41,58.21,58.21,0,0,1-2.78-7.39c-2.33,0-4.93,0-7.52,0-4.19-.05-6.48-2.37-6.49-6.54,0-5.15,0-10.29,0-15.43q0-50.55,0-101.09a6.27,6.27,0,0,1,6.63-6.6c6.15.18,12.3,0,18.46.06a7.6,7.6,0,0,1,2.13.22c2.86.82,4.26,2.94,4.26,6.38V272.87c0,.28,0,.57,0,.86a5.65,5.65,0,0,1-5.21,5.53c-1.25.09-2.5.07-3.75.08s-2.63,0-4,0a16.27,16.27,0,0,0,17.71,14c8.33-.83,13.91-8,14.21-13.76-2,0-4,0-6,0a9.9,9.9,0,0,1-2.56-.27c-2.84-.85-4.15-3-4.15-6.62V156.75c0-.53,0-1.06.09-1.58a5.44,5.44,0,0,1,4-4.89A10.75,10.75,0,0,1,256,150h96a6.91,6.91,0,0,1,1.58,0,6,6,0,0,1,2.65.91,27.61,27.61,0,0,1,2.78,3.69V275.21c-1.44,3.52-4.14,4.46-7.78,4.42-13.59-.14-27.18-.05-40.77-.05q-21.54,0-43.08,0c-1,0-1.41.19-1.65,1.34a19.8,19.8,0,0,1-11.64,14.75A47.34,47.34,0,0,1,248.59,297.42ZM277,220.12c2.17,0,4.33,0,6.49,0a2.51,2.51,0,0,0,2.81-2.62,52.53,52.53,0,0,0,0-5.47,2.47,2.47,0,0,0-2.71-2.57c-4.37,0-8.74-.05-13.11,0-1.73,0-2.58,1-2.62,2.76s0,3.27,0,4.9c0,2.11.88,3,3,3S275,220.12,277,220.12Zm.14-19.61c2.06,0,4.13,0,6.19,0s2.89-.9,3-2.77c.07-1.72.07-3.46,0-5.18a2.49,2.49,0,0,0-2.72-2.71q-6.56-.06-13.11,0c-1.74,0-2.59,1-2.63,2.73s0,3.27,0,4.9c0,2.14.9,3,3.09,3S275.08,200.51,277.15,200.51Zm53.91,19.61c2.16,0,4.32,0,6.48,0a2.53,2.53,0,0,0,2.78-2.78c0-1.73,0-3.46,0-5.19a2.46,2.46,0,0,0-2.59-2.67q-6.62-.09-13.25,0c-1.71,0-2.59,1-2.62,2.78s0,3.27,0,4.9c0,2,.93,2.95,3,3S329,220.12,331.06,220.12Zm-54,19.62c2.11,0,4.22,0,6.33,0,1.84,0,2.8-.87,2.89-2.68s.07-3.46,0-5.18a2.54,2.54,0,0,0-2.81-2.78c-4.28-.06-8.55-.05-12.82,0-1.93,0-2.8,1-2.83,2.86q0,2.44,0,4.89c0,2,.89,2.88,2.9,2.91S275,239.74,277.1,239.74Zm26.95-39.23c2,0,4,0,6.05,0,2.29,0,3.15-.86,3.18-3.09,0-1.53,0-3.07,0-4.61,0-2.11-.87-3-3-3q-6.19,0-12.39,0c-2.1,0-3,.86-3.09,2.92-.05,1.59,0,3.17,0,4.76.06,2.07,1,3,3,3S302,200.51,304.05,200.51Zm27.15-10.69c-2.16,0-4.32,0-6.48,0-1.92,0-2.85.94-2.87,2.82q0,2.52,0,5c0,1.74.9,2.77,2.62,2.79,4.42.06,8.83.07,13.25,0,1.71,0,2.57-1.08,2.6-2.82s0-3.27,0-4.9c0-2-.94-2.9-2.92-2.93S333.27,189.82,331.2,189.82Zm-27.08,30.3h6.05c2.22,0,3.08-.84,3.1-3,0-1.58,0-3.17,0-4.75,0-2-.9-2.9-2.9-2.92-4.18,0-8.36,0-12.54,0-2.05,0-3,.92-3,3,0,1.53,0,3.07,0,4.61.05,2.16.95,3,3.11,3.05S302.05,220.12,304.12,220.12Zm26.95,19.62c2.16,0,4.32,0,6.48,0a2.52,2.52,0,0,0,2.77-2.78q0-2.52,0-5c0-1.74-.88-2.78-2.61-2.81q-6.61-.1-13.25,0c-1.73,0-2.58,1.05-2.61,2.79,0,1.54,0,3.07,0,4.61,0,2.37.84,3.23,3.18,3.24Zm-27.06,0c2.16,0,4.32,0,6.48,0,1.86,0,2.74-.89,2.78-2.72q0-2.52,0-5c0-2-.92-2.87-2.94-2.89q-6.27-.06-12.53,0c-2,0-2.92.93-3,2.9q-.09,2.45,0,4.89c.07,2,1,2.85,3,2.87S301.94,239.74,304,239.74Z" transform="translate(-90.04 -90.68)"></path><path class="cls-3" d="M218.15,202.81" transform="translate(-90.04 -90.68)"></path></svg>